<?xml version="1.0" encoding="utf-8"?>
<!--
  Bystronaut master icon template.
  build-icons.py reads each part file, inlines the path, substitutes tokens.

  Object stack (back → front):
    background   BG_START / BG_END
    dots         DOT_MAIN / MAST / opacities
    mast         parts/mast.svg        MAST
    hull-body    parts/hull-body.svg   HULL
    sail-top     parts/sail-top.svg    SAILS
    sail-big     parts/sail-big.svg    SAILS
    sail-front   parts/sail-front.svg  SAILS
    formula      FORMULA_*
-->
<svg xmlns="http://www.w3.org/2000/svg" viewBox="0 0 1024 1024" width="1024" height="1024">
<metadata><rdf:RDF xmlns:rdf="http://www.w3.org/1999/02/22-rdf-syntax-ns#" xmlns:dc="http://purl.org/dc/elements/1.1/"><rdf:Description><dc:title>mathonaut/logo/icon-light-bg-formula</dc:title><dc:date>2026-05-10</dc:date></rdf:Description></rdf:RDF></metadata>
<defs>
  <radialGradient id="bg" cx="38%" cy="28%" r="72%">
    <stop offset="0%" stop-color="#F2F8FF"/>
    <stop offset="100%" stop-color="#E0E8F8"/>
  </radialGradient>
</defs>

<!-- Background -->
<rect width="1024" height="1024" fill="url(#bg)"/>

<!-- Dots -->
<circle cx="176" cy="336" r="4.4" fill="#0F0E2A" opacity="0"/>
<circle cx="124" cy="420" r="3.0" fill="#0F0E2A" opacity="0"/>
<circle cx="216" cy="480" r="3.6" fill="#0BD8CC"     opacity="0"/>
<circle cx="144" cy="580" r="2.8" fill="#0F0E2A" opacity="0"/>
<circle cx="880" cy="350" r="4.4" fill="#0F0E2A" opacity="0"/>
<circle cx="924" cy="430" r="3.0" fill="#0F0E2A" opacity="0"/>
<circle cx="844" cy="496" r="3.6" fill="#0BD8CC"     opacity="0"/>
<path d="M108 370 L112 358 L116 370 L112 382Z" fill="#0F0E2A" opacity="0"/>
<path d="M906 384 L910 372 L914 384 L910 396Z" fill="#0F0E2A" opacity="0"/>

<!-- Ship assembly — same geometry as ship-assembled.svg, tokens substituted -->
<g transform="translate(-30,-175)">
<!-- Mast -->
<g fill="#0BD8CC" stroke="#0BD8CC" stroke-width="4" stroke-linejoin="round" stroke-linecap="round">
  <path d="M 420 395 L 440 395 L 405 895 L 370 895 Z"/>
  <path d="M 320 890 L 455 890 L 455 900 L 320 900 Z"/>
</g>
<!-- Big sail -->
<path d="M 210 555 C 290 620, 310 730, 215 845 C 335 810, 455 785, 555 840 C 615 760, 605 655, 510 590 Z"
      fill="#7C5CFF" stroke="#7C5CFF" stroke-width="8" stroke-linecap="round" stroke-linejoin="round"/>
<!-- Top sail -->
<path d="M 340 420 C 380 445, 380 500, 340 540 C 405 515, 460 510, 510 550 C 535 505, 525 460, 490 435 Z"
      fill="#7C5CFF" stroke="#7C5CFF" stroke-width="8" stroke-linecap="round" stroke-linejoin="round"/>
<!-- Front sail -->
<path d="M 485 560 C 555 610, 605 680, 630 770 C 670 710, 780 710, 860 720 Z"
      fill="#7C5CFF" stroke="#7C5CFF" stroke-width="7" stroke-linecap="round" stroke-linejoin="round"/>
<!-- Hull — potrace path, Y-flipped via matrix transform -->
<g transform="matrix(0.0924,0,0,-0.0924,48,1000)" fill="#06091C" fill-rule="evenodd">
  <path d="M10020 3820 c-8 -5 -37 -19 -65 -31 -27 -12 -77 -34 -110 -49 -33 -15 -82 -37 -110 -50 -27 -12 -96 -44 -151 -71 -56 -27 -107 -49 -113 -49 -6 0 -11 -4 -11 -10 0 -5 -9 -10 -19 -10 -11 0 -22 -4 -26 -9 -3 -5 -19 -12 -35 -16 -17 -4 -30 -11 -30 -16 0 -5 -6 -9 -12 -9 -7 0 -38 -12 -68 -26 -30 -14 -68 -32 -85 -39 -16 -7 -54 -24 -83 -39 -30 -14 -60 -26 -67 -26 -7 0 -15 -3 -17 -7 -3 -8 -22 -18 -108 -56 -46 -21 -208 -96 -291 -136 -36 -17 -71 -31 -77 -31 -7 0 -12 -4 -12 -10 0 -5 -6 -10 -12 -10 -7 0 -40 -14 -73 -30 -33 -16 -66 -30 -72 -30 -7 0 -13 -4 -13 -10 0 -5 -7 -10 -15 -10 -8 0 -45 -15 -82 -34 -38 -19 -90 -44 -118 -56 -27 -12 -95 -44 -150 -71 -56 -27 -106 -49 -113 -49 -7 0 -12 -3 -12 -7 0 -5 -21 -16 -48 -26 -26 -10 -54 -22 -63 -27 -32 -17 -146 -32 -304 -41 -210 -11 -425 -28 -450 -35 -11 -3 -49 -9 -85 -14 -58 -9 -119 -20 -270 -50 -41 -8 -104 -23 -200 -48 -37 -9 -102 -30 -135 -42 -11 -4 -42 -16 -70 -25 -27 -9 -64 -23 -82 -31 -17 -8 -34 -14 -37 -14 -15 0 -249 -111 -306 -146 -19 -11 -62 -36 -95 -54 -58 -32 -225 -147 -275 -190 -49 -42 -66 -55 -110 -90 -25 -19 -52 -40 -60 -47 -37 -29 -106 -84 -116 -92 -5 -4 -20 -13 -31 -20 -12 -6 -28 -17 -35 -23 -20 -19 -50 -38 -70 -44 -10 -4 -18 -9 -18 -13 0 -4 -17 -15 -37 -26 -21 -11 -40 -22 -43 -25 -6 -6 -168 -85 -220 -107 -19 -8 -42 -19 -50 -23 -9 -4 -30 -11 -48 -14 -17 -4 -34 -12 -37 -17 -4 -5 -15 -9 -26 -9 -10 0 -27 -4 -37 -10 -18 -10 -193 -54 -283 -71 -30 -5 -74 -14 -99 -18 -25 -5 -83 -14 -130 -20 -47 -7 -112 -16 -145 -21 -125 -19 -521 -33 -735 -26 -316 11 -586 31 -740 55 -36 6 -81 13 -100 16 -313 46 -508 84 -750 145 -19 5 -57 14 -85 20 -27 6 -59 15 -70 20 -20 8 -90 28 -135 36 -14 3 -34 9 -45 14 -11 5 -45 16 -75 26 -30 9 -69 23 -87 31 -17 7 -40 13 -51 13 -12 0 -24 5 -27 10 -3 5 -17 10 -30 10 -13 0 -27 5 -30 10 -3 6 -14 10 -23 10 -9 0 -29 6 -43 14 -14 7 -38 16 -54 20 -16 4 -46 16 -67 26 -65 31 -95 34 -107 11 -14 -26 -14 -195 0 -240 56 -176 102 -244 229 -337 50 -37 97 -62 203 -108 21 -9 43 -16 50 -16 23 0 41 -74 67 -265 9 -69 28 -152 41 -177 5 -10 9 -22 9 -28 0 -16 82 -183 97 -198 7 -7 13 -16 13 -20 0 -4 13 -21 28 -39 15 -17 34 -39 43 -50 20 -24 73 -69 129 -113 25 -19 48 -39 52 -45 11 -15 4566 -14 4599 1 25 12 104 33 152 42 15 2 27 8 27 13 0 5 9 9 20 9 33 0 197 76 271 125 28 19 53 35 56 35 7 0 78 54 81 63 2 4 10 7 18 7 35 0 364 360 364 398 0 6 4 12 8 14 16 6 133 224 162 303 5 11 15 36 24 57 9 20 16 45 16 55 0 10 4 23 8 29 5 5 16 43 26 84 10 41 21 86 26 100 4 14 16 54 26 90 9 36 21 70 25 75 4 6 10 24 14 42 7 34 43 116 76 173 11 19 23 43 26 53 3 9 9 17 14 17 5 0 9 5 9 10 0 10 60 96 104 149 32 38 86 91 152 148 80 71 82 73 89 73 3 0 16 9 28 21 28 25 323 209 337 209 5 0 10 3 10 8 0 4 17 16 38 27 20 11 43 26 50 32 7 7 20 13 28 13 8 0 14 5 14 10 0 6 5 10 11 10 6 0 25 11 42 24 18 13 52 35 77 48 37 21 220 130 280 168 8 5 29 17 47 26 18 9 37 22 44 30 6 8 16 14 22 14 5 0 25 11 43 25 18 14 35 25 39 25 3 0 34 18 69 40 35 22 68 40 75 40 6 0 11 5 11 10 0 6 7 10 15 10 8 0 15 4 15 10 0 5 11 12 25 16 14 3 25 9 25 13 0 3 17 15 38 26 20 11 39 22 42 26 3 3 12 9 20 12 8 4 38 21 65 38 28 16 58 33 68 36 9 3 17 9 17 13 0 4 18 15 40 26 22 10 40 22 40 25 0 4 11 10 25 13 14 4 25 11 25 16 0 6 5 10 12 10 10 0 105 56 118 70 3 3 14 10 25 16 60 32 91 50 95 55 3 3 12 9 20 13 8 4 24 12 35 19 11 7 43 25 70 41 86 49 102 84 64 137 -15 22 -28 29 -52 28 -18 0 -39 -4 -47 -9z m-2446 -1592 c-10 -13 -22 -25 -25 -28 -3 -3 -19 -25 -34 -50 -15 -25 -30 -47 -32 -50 -3 -3 -59 -8 -126 -12 -265 -14 -382 -29 -592 -74 -38 -8 -86 -17 -105 -21 -19 -3 -39 -9 -45 -13 -5 -5 -28 -11 -50 -15 -22 -4 -44 -11 -50 -14 -5 -4 -37 -16 -70 -26 -33 -11 -64 -23 -70 -27 -5 -4 -15 -8 -21 -8 -36 0 -378 -186 -404 -220 -3 -4 -20 -15 -37 -25 -18 -11 -33 -23 -33 -27 0 -4 -5 -8 -11 -8 -6 0 -34 -19 -62 -42 -28 -24 -56 -46 -62 -50 -5 -5 -28 -23 -51 -40 -71 -57 -173 -131 -267 -195 -51 -34 -97 -67 -104 -73 -7 -5 -17 -10 -23 -10 -5 0 -10 -4 -10 -9 0 -5 -10 -13 -22 -17 -13 -4 -25 -10 -28 -13 -5 -6 -229 -117 -265 -131 -11 -4 -31 -12 -45 -18 -76 -32 -100 -42 -145 -57 -27 -9 -59 -21 -70 -25 -11 -4 -49 -16 -85 -25 -36 -10 -72 -20 -80 -23 -14 -5 -44 -12 -180 -43 -147 -33 -293 -54 -470 -69 -69 -6 -159 -15 -201 -21 -101 -14 -895 -15 -1030 0 -57 6 -165 16 -239 22 -210 18 -353 36 -535 68 -27 5 -84 14 -125 21 -41 6 -84 15 -95 19 -11 5 -49 14 -85 21 -235 46 -281 57 -292 68 -6 6 -16 45 -23 86 -14 91 -21 89 133 45 64 -18 217 -52 337 -75 109 -20 165 -30 265 -44 47 -6 101 -16 120 -20 33 -8 276 -35 405 -45 33 -3 201 -10 374 -17 396 -14 909 4 1105 41 33 6 75 11 95 11 19 0 48 4 65 9 28 9 113 25 191 38 17 2 39 8 50 12 11 5 56 17 100 26 44 10 84 22 89 27 6 4 18 8 28 8 20 0 211 62 218 71 3 3 28 14 55 24 28 11 52 22 55 25 3 3 25 14 50 25 25 11 47 22 50 25 3 3 37 21 75 40 39 19 72 38 73 43 2 4 10 7 18 7 8 0 14 4 14 9 0 5 10 13 23 17 12 4 24 10 27 13 3 4 48 38 100 76 118 87 107 78 160 121 70 55 72 57 120 94 25 19 47 37 50 40 10 10 116 88 145 106 17 10 32 21 35 24 6 6 34 22 112 62 35 18 69 39 76 45 7 7 20 13 28 13 8 0 14 3 14 8 0 8 73 42 90 42 6 0 10 5 10 10 0 6 7 10 15 10 8 0 23 4 33 10 29 17 172 70 187 70 9 0 23 4 33 9 9 5 49 17 87 26 39 9 86 20 105 25 19 5 64 14 100 21 36 6 88 15 115 20 28 5 100 14 160 20 61 5 146 14 190 18 44 5 138 9 209 10 l129 1 -19 -22z"/>
</g>
</g><!-- end ship-assembly -->

<!-- Formula -->
<g display="inline">
  <text x="512" y="584"
        font-family="'Courier New', monospace" font-size="280" font-weight="700"
        text-anchor="middle" dominant-baseline="central" letter-spacing="-4"
        stroke="#000000" stroke-linejoin="round" stroke-width="19" paint-order="stroke">
    <tspan fill="#F59E0B">2</tspan><tspan fill="#F59E0B" font-size="145" dy="-145">3</tspan><tspan fill="#F59E0B" font-size="280" dy="145" dx="-11">=</tspan><tspan fill="#F59E0B" dx="70">8</tspan>
  </text>
</g>

</svg>
